<?xml version="1.0" standalone="no"?>
<!DOCTYPE svg PUBLIC "-//W3C//DTD SVG 1.1//EN" "http://www.w3.org/Graphics/SVG/1.1/DTD/svg11.dtd" >
<svg>
<metadata>
Created by FontForge 20120731 at Thu Sep 11 11:08:07 2014
 By World Wide Web Server
Copyright (c) 1985, 1987, 1997, 1998, 2001 Adobe Systems Incorporated.  All Rights Reserved. Revised kerning Copyright 2010 International Typeface Corporation.
</metadata>
<defs>
<font id="LubalinBookforIBM" horiz-adv-x="809" >
  <font-face 
    font-family="Lubalin Book for IBM"
    font-weight="400"
    font-stretch="normal"
    units-per-em="1000"
    panose-1="2 6 5 2 2 2 5 2 4 4"
    ascent="719"
    descent="-281"
    x-height="525"
    cap-height="714"
    bbox="-154 -252 1169 982"
    underline-thickness="50"
    underline-position="-50"
    stemh="62"
    stemv="66"
    unicode-range="U+0020-FB02"
  />
<missing-glyph horiz-adv-x="500" 
d="M0 0v700h500v-700h-500zM250 395l170 255h-340zM280 350l170 -255v510zM80 50h340l-170 255zM50 605v-510l170 255z" />
    <glyph glyph-name=".notdef" horiz-adv-x="500" 
d="M0 0v700h500v-700h-500zM250 395l170 255h-340zM280 350l170 -255v510zM80 50h340l-170 255zM50 605v-510l170 255z" />
    <glyph glyph-name="space" unicode=" " horiz-adv-x="278" 
 />
    <glyph glyph-name="exclam" unicode="!" horiz-adv-x="310" 
d="M190 109v-109h-69v109h69zM190 714v-531h-69v531h69z" />
    <glyph glyph-name="quotedbl" unicode="&#x22;" horiz-adv-x="380" 
d="M280 487h-48l-11 227h70zM147 487h-47l-11 227h70z" />
    <glyph glyph-name="numbersign" unicode="#" horiz-adv-x="583" 
d="M413 260l-36 -260h-47l36 260h-122l-36 -260h-47l35 260h-142v46h151l15 117h-139v47h147l34 244h47l-33 -244h121l35 244h46l-33 -244h131v-47h-140l-14 -117h129v-46h-138zM389 423h-121l-15 -117h121z" />
    <glyph glyph-name="dollar" unicode="$" horiz-adv-x="527" 
d="M450 544h-57c0 55 -49 107 -102 119v-263c113 -16 201 -89 201 -210c0 -114 -91 -197 -201 -206v-93h-61v93c-53 17 -87 35 -118 81v-65h-57v192h57c2 -69 54 -122 118 -144v296l-32 10c-44 13 -77 27 -109 62c-29 33 -44 78 -44 122c0 105 85 182 185 189v98h61v-98
c45 -10 82 -32 102 -72v58h57v-169zM230 413v250c-62 -3 -112 -60 -112 -123c0 -71 48 -112 112 -127zM291 331v-283c73 9 128 66 128 141c0 78 -56 126 -128 142z" />
    <glyph glyph-name="percent" unicode="%" horiz-adv-x="824" 
d="M614 -13c-94 0 -166 77 -166 169c0 91 77 162 166 162c91 0 165 -74 165 -165s-73 -166 -165 -166zM614 46c60 0 107 48 107 108c0 58 -48 106 -106 106s-108 -45 -108 -104c0 -61 46 -110 107 -110zM210 398c-94 0 -165 77 -165 169c0 91 77 162 166 162
c90 0 164 -75 164 -165c0 -92 -73 -166 -165 -166zM211 456c60 0 107 49 107 109c0 57 -49 106 -106 106c-58 0 -109 -45 -109 -104c0 -61 46 -111 108 -111zM284 0h-58l317 714h57z" />
    <glyph glyph-name="ampersand" unicode="&#x26;" horiz-adv-x="693" 
d="M663 35l-46 -46l-163 159c-47 -96 -108 -162 -222 -162c-115 0 -212 91 -212 208c0 105 82 169 168 212l-14 13c-47 44 -83 82 -83 151c0 93 76 163 168 163c88 0 165 -70 165 -160c0 -88 -67 -138 -138 -173l159 -152l94 203h129v-62h-87l-89 -188zM226 457l19 -17
c52 25 118 62 118 128c0 57 -44 105 -103 105c-56 0 -103 -43 -103 -101c0 -54 33 -81 69 -115zM407 193l-175 168c-70 -31 -141 -78 -141 -165c0 -80 64 -148 146 -148c97 0 134 68 170 145z" />
    <glyph glyph-name="quoteright" unicode="&#x2019;" horiz-adv-x="177" 
d="M83 531h-63l74 183h63z" />
    <glyph glyph-name="parenleft" unicode="(" horiz-adv-x="414" 
d="M373 -52v-81c-162 75 -264 247 -264 425c0 97 29 190 85 269c43 62 108 126 179 153v-79c-118 -74 -190 -203 -190 -342s71 -273 190 -345z" />
    <glyph glyph-name="parenright" unicode=")" horiz-adv-x="415" 
d="M41 635v79c71 -28 136 -91 179 -153c56 -79 85 -172 85 -269c0 -178 -102 -350 -264 -425v81c119 72 190 206 190 345s-72 268 -190 342z" />
    <glyph glyph-name="asterisk" unicode="*" horiz-adv-x="522" 
d="M353 605v-42h-102l52 -83l-36 -22l-51 87l-48 -90l-36 20l50 88l-103 -2v42h101l-55 86l36 23l54 -91l52 93l37 -21l-53 -90z" />
    <glyph glyph-name="plus" unicode="+" horiz-adv-x="623" 
d="M57 388h223v223h62v-223h223v-61h-223v-223h-62v223h-223v61z" />
    <glyph glyph-name="comma" unicode="," horiz-adv-x="294" 
d="M120 -97h-63l74 184h63z" />
    <glyph glyph-name="hyphen" unicode="-" horiz-adv-x="308" 
d="M278 228h-248v66h248v-66z" />
    <glyph glyph-name="period" unicode="." horiz-adv-x="289" 
d="M159 109v-109h-69v109h69z" />
    <glyph glyph-name="slash" unicode="/" horiz-adv-x="605" 
d="M85 -195h-53l445 909h54z" />
    <glyph glyph-name="zero" unicode="0" horiz-adv-x="601" 
d="M549 471v-223c0 -70 -15 -127 -63 -180c-48 -51 -115 -82 -186 -82c-66 0 -129 27 -176 73c-55 54 -73 114 -73 189v223c0 70 15 127 64 179c48 52 115 83 185 83c66 0 130 -27 176 -73c55 -54 73 -114 73 -189zM122 470v-222c0 -48 6 -88 36 -127c33 -45 87 -70 142 -70
c57 0 113 27 146 73c27 39 32 77 32 124v222c0 48 -5 88 -35 127c-33 45 -87 70 -143 70s-112 -27 -145 -74c-27 -38 -33 -76 -33 -123z" />
    <glyph glyph-name="one" unicode="1" horiz-adv-x="331" 
d="M216 714v-652h94v-62h-258v62h94v595h-138v57h208z" />
    <glyph glyph-name="two" unicode="2" horiz-adv-x="572" 
d="M444 173h64v-173h-455v62l302 294c44 43 86 86 86 152c0 89 -69 156 -157 156c-94 0 -162 -77 -157 -170h-69c-6 134 98 239 231 239c55 0 116 -24 156 -62c44 -44 66 -103 66 -165c0 -91 -54 -144 -114 -202l-252 -242h299v111z" />
    <glyph glyph-name="three" unicode="3" horiz-adv-x="556" 
d="M156 560h-67c2 101 90 173 187 173c99 0 185 -72 185 -175c0 -66 -33 -127 -96 -152c84 -27 140 -107 140 -196c0 -126 -106 -224 -229 -224c-128 0 -231 88 -238 218h73c6 -83 72 -154 158 -154c93 0 162 75 162 166c0 93 -82 159 -171 159h-36v56h34c34 0 65 5 93 27
s43 56 43 92c0 71 -51 123 -121 123c-62 0 -114 -50 -117 -113z" />
    <glyph glyph-name="four" unicode="4" horiz-adv-x="592" 
d="M556 233v-58h-104v-113h94v-62h-257v62h93v113h-351v58l335 481h86v-481h104zM382 233v396l-272 -396h272z" />
    <glyph glyph-name="five" unicode="5" horiz-adv-x="589" 
d="M36 194h74c16 -84 91 -143 176 -143c98 0 185 78 185 178c0 103 -79 183 -183 183c-60 0 -115 -27 -149 -75l-63 15l66 362h353v-62h-296l-45 -230c42 35 94 53 149 53c133 0 240 -109 240 -241c0 -143 -116 -248 -256 -248c-127 0 -230 83 -251 208z" />
    <glyph glyph-name="six" unicode="6" horiz-adv-x="585" 
d="M309 714h79l-183 -267c34 23 62 34 104 34c132 0 235 -110 235 -239c0 -141 -106 -256 -249 -256c-144 0 -254 116 -254 258c0 62 24 111 58 162zM293 55c100 0 183 80 183 181s-80 186 -183 186c-101 0 -183 -83 -183 -183c0 -101 81 -184 183 -184z" />
    <glyph glyph-name="seven" unicode="7" horiz-adv-x="496" 
d="M51 714h434v-67l-293 -647h-78l299 652h-293v-129h-69v191z" />
    <glyph glyph-name="eight" unicode="8" horiz-adv-x="558" 
d="M190 396c-62 27 -101 83 -101 153c0 108 88 184 194 184c97 0 181 -79 181 -177c0 -70 -35 -126 -97 -156c81 -27 140 -106 140 -192c0 -126 -104 -222 -228 -222s-228 90 -228 216c0 88 57 166 139 194zM276 424c68 0 123 56 123 123c0 68 -54 124 -122 124
s-123 -55 -123 -123s54 -124 122 -124zM278 49c87 0 155 71 155 157s-71 156 -157 156c-85 0 -155 -71 -155 -156c0 -88 70 -157 157 -157z" />
    <glyph glyph-name="nine" unicode="9" horiz-adv-x="589" 
d="M284 0h-87l184 264c-32 -20 -63 -33 -101 -33c-134 0 -239 115 -239 245c0 140 115 257 255 257c142 0 252 -118 252 -257c0 -68 -21 -113 -58 -168zM296 293c104 0 182 86 182 188c0 99 -82 182 -181 182c-101 0 -186 -80 -186 -182c0 -104 80 -188 185 -188z" />
    <glyph glyph-name="colon" unicode=":" horiz-adv-x="328" 
d="M199 109v-109h-69v109h69zM199 475v-109h-69v109h69z" />
    <glyph glyph-name="semicolon" unicode=";" horiz-adv-x="301" 
d="M120 -97h-63l74 184h63zM193 475v-109h-64v109h64z" />
    <glyph glyph-name="less" unicode="&#x3c;" horiz-adv-x="653" 
d="M596 146v-63l-540 246v58l540 248v-63l-470 -215z" />
    <glyph glyph-name="equal" unicode="=" horiz-adv-x="624" 
d="M58 463h508v-61h-508v61zM58 314h508v-61h-508v61z" />
    <glyph glyph-name="greater" unicode="&#x3e;" horiz-adv-x="653" 
d="M56 146l470 211l-470 215v63l540 -248v-58l-540 -246v63z" />
    <glyph glyph-name="question" unicode="?" horiz-adv-x="553" 
d="M313 109v-109h-70v109h70zM313 180h-70c0 91 38 144 103 203c44 40 78 70 78 134c0 84 -69 152 -153 152c-85 0 -151 -72 -151 -155h-70c-1 122 98 225 222 225c122 0 224 -97 224 -220c0 -85 -40 -122 -97 -175c-50 -48 -83 -93 -86 -164z" />
    <glyph glyph-name="at" unicode="@" horiz-adv-x="815" 
d="M745 150l19 -29c-74 -91 -186 -135 -305 -135c-98 0 -209 36 -283 99c-78 67 -121 170 -121 272c0 210 187 376 401 376c184 0 347 -123 347 -307c0 -65 -14 -123 -54 -175c-38 -49 -101 -91 -167 -91c-40 0 -60 22 -62 60c-37 -43 -81 -65 -140 -65
c-94 0 -151 83 -151 167c0 121 104 247 234 247c54 0 103 -29 119 -79l16 49h47l-75 -256c-5 -16 -11 -34 -11 -51c0 -23 14 -34 37 -34c40 0 87 34 111 62c42 46 57 103 57 164c0 77 -29 138 -87 191c-63 56 -139 80 -224 80c-96 0 -178 -33 -247 -95
c-73 -67 -108 -146 -108 -243c0 -200 160 -333 361 -333c108 0 218 45 286 126zM391 199c34 0 64 12 90 34c26 23 36 46 48 78c10 29 31 97 31 128c0 54 -44 88 -98 88c-107 0 -184 -113 -184 -208c0 -65 41 -120 113 -120z" />
    <glyph glyph-name="A" unicode="A" 
d="M809 0h-262v66h93l-71 164h-331l-73 -164h90v-66h-255v66h89l259 582h-95v66h187l280 -648h89v-66zM548 289l-143 344l-146 -344h289z" />
    <glyph glyph-name="B" unicode="B" horiz-adv-x="596" 
d="M30 714h294c49 0 97 -4 138 -35c46 -35 70 -84 70 -141c0 -67 -39 -127 -99 -156c83 -30 133 -101 133 -189c0 -54 -22 -108 -62 -145c-47 -43 -100 -48 -162 -48h-312v66h91v582h-91v66zM193 406h110c44 0 79 -1 115 29c29 24 42 57 42 95c0 39 -15 75 -47 98
s-69 20 -107 20h-113v-242zM193 66h123c46 0 92 0 129 24c36 23 49 71 49 112c0 45 -20 89 -57 115c-39 27 -83 27 -129 27h-115v-278z" />
    <glyph glyph-name="C" unicode="C" horiz-adv-x="737" 
d="M685 540h-66c-53 80 -151 121 -246 121c-167 0 -301 -131 -301 -298c0 -165 129 -305 299 -305c100 0 192 47 250 129h80c-60 -124 -191 -201 -328 -201c-98 0 -195 41 -264 109c-73 72 -109 167 -109 268c0 102 42 194 112 267c63 65 158 103 260 103
c96 0 185 -34 247 -103v84h66v-174z" />
    <glyph glyph-name="D" unicode="D" horiz-adv-x="713" 
d="M122 66v582h-92v66h318c102 0 179 -24 254 -97c70 -69 106 -164 106 -262c0 -94 -37 -185 -102 -254c-73 -77 -154 -101 -258 -101h-318v66h92zM194 66h140c86 0 157 14 218 79c52 55 84 135 84 211c0 80 -31 164 -90 220c-63 60 -124 72 -209 72h-143v-582z" />
    <glyph glyph-name="E" unicode="E" horiz-adv-x="583" 
d="M461 184h72v-184h-503v66h91v582h-91v66h503v-184h-72v118h-268v-258h276v-59h-276v-265h268v118z" />
    <glyph glyph-name="F" unicode="F" horiz-adv-x="569" 
d="M193 329v-263h92v-66h-255v66h91v582h-91v66h504v-186h-72v120h-269v-260h272v-59h-272z" />
    <glyph glyph-name="G" unicode="G" horiz-adv-x="799" 
d="M699 535h-66c-34 41 -73 73 -117 94c-43 22 -91 33 -141 33c-168 0 -303 -132 -303 -300c0 -167 130 -304 301 -304c135 0 252 85 287 215h-358v62h437v-335h-66v166c-59 -114 -175 -180 -303 -180c-123 0 -253 73 -315 180c-18 31 -55 110 -55 196c0 105 42 198 106 259
c74 70 166 112 271 112c98 0 193 -42 256 -112v93h66v-179z" />
    <glyph glyph-name="H" unicode="H" horiz-adv-x="741" 
d="M548 389v259h-91v66h254v-66h-91v-582h91v-66h-254v66h91v267h-355v-267h92v-66h-255v66h91v582h-91v66h255v-66h-92v-259h355z" />
    <glyph glyph-name="I" unicode="I" horiz-adv-x="314" 
d="M193 648v-582h91v-66h-254v66h91v582h-91v66h254v-66h-91z" />
    <glyph glyph-name="J" unicode="J" horiz-adv-x="489" 
d="M5 164h75c7 -60 52 -111 116 -111c38 0 70 18 93 47c28 35 27 76 27 118v430h-92v66h255v-66h-91v-445c0 -57 -3 -98 -40 -146c-36 -47 -94 -71 -154 -71c-104 0 -186 75 -189 178z" />
    <glyph glyph-name="K" unicode="K" horiz-adv-x="707" 
d="M682 66v-66h-262v66h83l-310 294v-294h91v-66h-254v66h91v582h-91v66h254v-66h-91v-265l294 265h-80v66h258v-66h-86l-307 -275l326 -307h84z" />
    <glyph glyph-name="L" unicode="L" horiz-adv-x="529" 
d="M427 184h72v-184h-469v66h91v582h-91v66h254v-66h-91v-582h234v118z" />
    <glyph glyph-name="M" unicode="M" horiz-adv-x="1001" 
d="M193 620v-554h94v-66h-257v66h91v582h-91v66h200l259 -606l284 606h198v-66h-92v-582h92v-66h-256v66h92v556l-292 -622h-56z" />
    <glyph glyph-name="N" unicode="N" horiz-adv-x="805" 
d="M694 648v-648h-74l-427 597v-531h92v-66h-255v66h91v582h-91v66h164l428 -600v534h-91v66h254v-66h-91z" />
    <glyph glyph-name="O" unicode="O" horiz-adv-x="751" 
d="M377 -14c-208 0 -377 166 -377 373c0 208 168 374 377 374c205 0 374 -166 374 -369c0 -208 -165 -378 -374 -378zM376 57c168 1 303 137 303 304c0 164 -135 300 -302 300c-168 0 -305 -134 -305 -300c0 -168 135 -303 304 -303v-1z" />
    <glyph glyph-name="P" unicode="P" horiz-adv-x="590" 
d="M193 282v-216h91v-66h-254v66h91v582h-91v66h292c59 0 117 -10 166 -46c52 -39 82 -103 82 -168c0 -62 -24 -118 -69 -161c-51 -49 -105 -57 -172 -57h-136zM193 348h129c45 0 85 3 121 33s55 71 55 117c0 45 -22 88 -57 116c-38 29 -74 34 -120 34h-128v-300z" />
    <glyph glyph-name="Q" unicode="Q" horiz-adv-x="832" 
d="M765 126h57v-146c-82 -1 -163 26 -230 73c-66 -44 -139 -67 -219 -67c-211 0 -373 168 -373 375c0 205 165 372 371 372c209 0 378 -166 378 -373c0 -97 -38 -197 -111 -264c38 -25 81 -45 127 -50v80zM582 143c61 55 95 132 95 213c0 170 -133 305 -304 305
c-166 0 -301 -134 -301 -298c0 -27 7 -55 15 -82c49 16 102 26 154 26c142 0 241 -72 341 -164zM535 103l-20 17c-42 37 -79 70 -130 93c-45 22 -96 35 -146 35c-46 0 -93 -9 -135 -26c49 -100 156 -164 268 -164c59 0 113 12 163 45z" />
    <glyph glyph-name="R" unicode="R" horiz-adv-x="645" 
d="M630 66v-66h-139l-221 308h27c54 0 106 -2 153 27c50 31 80 85 80 143c0 50 -18 96 -54 129c-42 39 -88 41 -142 41h-140v-582h85v-66h-249v66h92v582h-92v66h309c69 0 127 -6 182 -53c54 -46 81 -110 81 -180c0 -121 -94 -220 -216 -220l149 -195h95z" />
    <glyph glyph-name="S" unicode="S" horiz-adv-x="513" 
d="M451 543h-60c-9 81 -68 127 -142 127c-72 0 -137 -50 -137 -125c0 -38 16 -76 47 -99c32 -24 80 -33 119 -42c52 -12 101 -24 143 -60c44 -36 67 -89 67 -145c0 -49 -9 -89 -41 -129c-45 -57 -102 -84 -178 -84c-66 0 -125 28 -162 84v-70h-60v192h60
c9 -85 70 -141 159 -141c81 0 150 58 150 141c0 104 -81 128 -166 149c-49 13 -94 22 -136 53c-49 36 -74 89 -74 149c0 51 17 86 37 113c38 52 106 77 173 77c56 0 117 -25 141 -77v58h60v-171z" />
    <glyph glyph-name="T" unicode="T" horiz-adv-x="576" 
d="M324 648v-582h91v-66h-254v66h91v582h-155v-125h-62v191h506v-191h-62v125h-155z" />
    <glyph glyph-name="U" unicode="U" horiz-adv-x="668" 
d="M567 648v-411c0 -66 -11 -123 -57 -176c-44 -49 -108 -75 -175 -75s-129 23 -175 73c-51 56 -59 115 -59 187v402h-91v66h249v-66h-86v-394c0 -48 2 -92 30 -133c31 -43 78 -63 131 -63c49 0 93 17 124 55c33 42 37 89 37 140v395h-86v66h249v-66h-91z" />
    <glyph glyph-name="V" unicode="V" horiz-adv-x="780" 
d="M689 648l-262 -648h-76l-256 648h-90v66h255v-66h-89l220 -548l224 548h-91v66h251v-66h-86z" />
    <glyph glyph-name="W" unicode="W" horiz-adv-x="1026" 
d="M931 648l-180 -648h-77l-158 573l-161 -573h-75l-188 648h-87v66h255v-66h-93l153 -538l167 604h57l167 -603l150 537h-96v66h256v-66h-90z" />
    <glyph glyph-name="X" unicode="X" horiz-adv-x="735" 
d="M412 367l220 -301h83v-66h-256v66h91l-180 248l-180 -248h87v-66h-257v66h89l218 301l-205 281h-86v66h256v-66h-87l165 -229l163 229h-91v66h257v-66h-83z" />
    <glyph glyph-name="Y" unicode="Y" horiz-adv-x="674" 
d="M379 240v-174h91v-66h-255v66h92v174l-217 408h-85v66h249v-66h-88l177 -340l168 340h-92v66h250v-66h-85z" />
    <glyph glyph-name="Z" unicode="Z" horiz-adv-x="558" 
d="M523 185v-185h-483v59l371 589h-297v-119h-62v185h447v-57l-372 -591h334v119h62z" />
    <glyph glyph-name="bracketleft" unicode="[" horiz-adv-x="496" 
d="M407 -62v-67h-225v843h225v-64h-151v-712h151z" />
    <glyph glyph-name="backslash" unicode="\" horiz-adv-x="473" 
d="M356 0l-300 714h69l298 -714h-67z" />
    <glyph glyph-name="bracketright" unicode="]" horiz-adv-x="494" 
d="M88 -62h150v712h-150v64h224v-843h-224v67z" />
    <glyph glyph-name="asciicircum" unicode="^" horiz-adv-x="680" 
d="M126 174h-61l246 540h56l248 -540h-62l-215 468z" />
    <glyph glyph-name="underscore" unicode="_" horiz-adv-x="520" 
d="M10 -75h500v-50h-500v50z" />
    <glyph glyph-name="quoteleft" unicode="&#x2018;" horiz-adv-x="177" 
d="M83 714l74 -183h-63l-74 183h63z" />
    <glyph glyph-name="a" unicode="a" horiz-adv-x="677" 
d="M494 0v109c-46 -79 -123 -123 -214 -123c-96 0 -184 47 -230 123c-26 43 -44 93 -42 151c0 76 22 111 44 150c43 76 132 124 227 124s167 -44 215 -124v115h153v-62h-87v-401h87v-62h-153zM286 469c-116 0 -212 -94 -212 -210c0 -113 94 -209 209 -209
c119 0 212 94 212 211c0 115 -94 208 -209 208z" />
    <glyph glyph-name="b" unicode="b" horiz-adv-x="669" 
d="M179 714v-306c43 78 119 126 208 126c153 0 275 -122 275 -275c0 -57 -20 -111 -44 -150c-37 -61 -126 -123 -223 -123c-90 0 -171 44 -216 123v-109h-154v62h88v590h-88v62h154zM389 52c115 0 207 95 207 210c0 114 -93 206 -208 206c-119 0 -212 -90 -212 -209
c0 -118 96 -207 213 -207z" />
    <glyph glyph-name="c" unicode="c" horiz-adv-x="569" 
d="M522 525v-158h-62c-38 62 -107 101 -180 101c-116 0 -207 -94 -207 -210c0 -117 94 -206 212 -206c75 0 149 42 180 112h74c-39 -109 -145 -178 -260 -178c-149 0 -272 124 -272 271c0 75 29 144 77 193c50 51 116 84 192 84c74 0 136 -30 184 -84v75h62z" />
    <glyph glyph-name="d" unicode="d" horiz-adv-x="662" 
d="M493 0v111c-45 -78 -124 -125 -215 -125c-83 0 -179 52 -225 125c-27 43 -46 99 -46 151c0 146 122 272 268 272c91 0 176 -48 218 -130v248h-88v62h154v-652h88v-62h-154zM285 48c118 0 210 96 210 214c0 116 -95 209 -210 209c-118 0 -212 -96 -212 -213
c0 -116 97 -210 212 -210z" />
    <glyph glyph-name="e" unicode="e" horiz-adv-x="560" 
d="M461 147h70c-44 -98 -142 -161 -250 -161c-151 0 -274 121 -274 271c0 149 118 277 270 277c156 0 276 -121 276 -276v-20h-480c6 -108 98 -193 206 -193c76 0 144 36 182 102zM73 292h418c-15 107 -108 182 -215 182c-101 0 -191 -83 -203 -182z" />
    <glyph glyph-name="f" unicode="f" horiz-adv-x="315" 
d="M190 465v-403h90v-62h-245v62h89v403h-89v64h88v8c2 59 3 108 51 151c35 32 80 42 126 45v-59c-26 -2 -52 -9 -73 -26c-36 -27 -36 -65 -37 -106v-13h90v-64h-90z" />
    <glyph glyph-name="g" unicode="g" horiz-adv-x="675" 
d="M43 -57h76c32 -65 101 -103 173 -103c54 0 109 25 145 64c45 47 54 92 54 155v56c-41 -81 -121 -129 -214 -129c-75 0 -187 45 -231 129c-18 34 -39 87 -39 146c0 63 21 118 45 152c53 75 138 121 229 121c90 0 171 -47 210 -121v112h154v-62h-88v-391
c0 -80 -9 -141 -65 -202c-53 -58 -127 -87 -204 -87c-104 0 -210 56 -245 160zM286 48c117 0 210 97 210 213s-94 212 -211 212s-212 -97 -212 -214c0 -116 97 -211 213 -211z" />
    <glyph glyph-name="h" unicode="h" horiz-adv-x="652" 
d="M174 714v-287c35 66 98 107 174 107c63 0 116 -26 157 -74c46 -54 49 -113 49 -180v-218h88v-62h-242v62h88v191c0 49 3 99 -23 142c-27 47 -78 75 -131 75c-46 0 -89 -18 -119 -52c-40 -46 -41 -90 -41 -147v-209h88v-62h-242v62h88v590h-88v62h154z" />
    <glyph glyph-name="i" unicode="i" horiz-adv-x="294" 
d="M191 525v-463h88v-62h-244v62h90v401h-88v62h154zM191 714v-103h-66v103h66z" />
    <glyph glyph-name="j" unicode="j" horiz-adv-x="220" 
d="M150 525v-515c0 -120 -33 -187 -160 -210v63c100 18 94 96 94 176v424h-88v62h154zM150 714v-103h-66v103h66z" />
    <glyph glyph-name="k" unicode="k" horiz-adv-x="595" 
d="M181 714v-423l193 172h-79v62h247v-62h-86l-197 -179l221 -222h95v-62h-258v62h74l-210 212v-212h80v-62h-236v62h90v590h-90v62h156z" />
    <glyph glyph-name="l" unicode="l" horiz-adv-x="287" 
d="M185 714v-652h87v-62h-247v62h94v590h-88v62h154z" />
    <glyph glyph-name="m" unicode="m" horiz-adv-x="1003" 
d="M189 525v-91c30 62 87 100 160 100c74 0 131 -36 166 -100l11 -20c29 73 103 120 178 120c101 0 155 -45 186 -120c13 -31 15 -60 15 -117v-235h88v-62h-242v62h88v220c0 48 -7 110 -32 138c-30 34 -71 50 -112 50c-38 0 -83 -17 -111 -49c-34 -39 -37 -74 -37 -123v-236
h88v-62h-242v62h88v222c0 62 -17 114 -32 136c-27 40 -72 50 -112 50c-50 0 -83 -17 -110 -49c-33 -39 -38 -81 -38 -130v-229h88v-62h-242v62h88v401h-88v62h154z" />
    <glyph glyph-name="n" unicode="n" horiz-adv-x="673" 
d="M189 525v-92c33 65 104 101 176 101c59 0 147 -32 181 -101c13 -26 29 -73 29 -137v-234h88v-62h-242v62h88v210c0 47 -1 92 -25 133c-28 49 -87 64 -137 64c-46 0 -93 -20 -123 -55c-34 -40 -35 -85 -35 -134v-218h88v-62h-242v62h88v401h-88v62h154z" />
    <glyph glyph-name="o" unicode="o" horiz-adv-x="564" 
d="M282 -14c-152 0 -275 123 -275 273c0 153 124 275 277 275c149 0 273 -122 273 -270c0 -153 -121 -278 -275 -278zM282 51c116 0 209 94 209 209c0 114 -92 209 -208 209s-210 -93 -210 -208c0 -114 92 -210 209 -210z" />
    <glyph glyph-name="p" unicode="p" horiz-adv-x="672" 
d="M179 525v-117c46 82 123 126 217 126c84 0 176 -38 226 -126c20 -35 43 -82 43 -148c0 -151 -119 -274 -269 -274c-89 0 -175 46 -217 125v-244h88v-62h-242v62h88v596h-88v62h154zM388 48c115 0 211 96 211 212c0 130 -98 218 -207 212c-114 -6 -214 -82 -214 -211
c0 -117 93 -213 210 -213z" />
    <glyph glyph-name="q" unicode="q" horiz-adv-x="681" 
d="M492 -133v243c-41 -78 -128 -124 -216 -124c-151 0 -269 122 -269 273c0 47 10 99 38 148c38 67 124 127 231 127c93 0 171 -45 216 -127v118h154v-62h-88v-596h88v-62h-242v62h88zM284 48c117 0 210 95 211 212c1 106 -94 212 -214 212c-119 8 -208 -82 -208 -212
c0 -117 96 -212 211 -212z" />
    <glyph glyph-name="r" unicode="r" horiz-adv-x="377" 
d="M189 525v-107c24 73 93 104 168 107v-62c-116 -10 -168 -78 -168 -190v-211h88v-62h-242v62h88v401h-88v62h154z" />
    <glyph glyph-name="s" unicode="s" horiz-adv-x="431" 
d="M386 392h-54c-1 27 -14 49 -34 64s-46 24 -74 24c-53 0 -103 -32 -103 -89c0 -66 63 -82 116 -93c41 -8 83 -17 119 -39c42 -24 65 -67 65 -115c0 -34 -11 -58 -23 -81c-25 -48 -92 -77 -153 -77c-63 0 -114 23 -146 77v-63h-54v150h54c6 -64 63 -111 134 -111
c58 0 114 39 114 100c0 72 -62 85 -120 97c-41 9 -82 17 -118 39c-39 25 -62 65 -62 111c0 36 7 64 27 90c31 40 90 58 139 58s93 -17 119 -58v49h54v-133z" />
    <glyph glyph-name="t" unicode="t" horiz-adv-x="326" 
d="M167 463v-401h124v-62h-190v463h-101v62h101v189h66v-189h116v-62h-116z" />
    <glyph glyph-name="u" unicode="u" horiz-adv-x="649" 
d="M479 0v88c-34 -64 -100 -102 -175 -102c-77 0 -147 49 -179 102c-17 28 -27 67 -27 129v246h-88v62h154v-283c0 -49 1 -96 33 -138c31 -41 74 -60 126 -56s92 26 118 57c36 43 38 81 38 135v223h-88v62h154v-463h89v-62h-155z" />
    <glyph glyph-name="v" unicode="v" horiz-adv-x="636" 
d="M547 463l-192 -463h-74l-188 463h-88v62h241v-62h-80l153 -384l157 384h-84v62h239v-62h-84z" />
    <glyph glyph-name="w" unicode="w" horiz-adv-x="898" 
d="M805 463l-166 -463h-69l-117 363l-133 -363h-68l-159 463h-88v62h238v-62h-83l132 -377l135 388h55l123 -383l134 372h-85v62h239v-62h-88z" />
    <glyph glyph-name="x" unicode="x" horiz-adv-x="611" 
d="M349 263l150 -201h87v-62h-239v62h70l-112 154l-112 -154h70v-62h-238v62h86l149 201l-150 200h-82v62h235v-62h-72l114 -152l112 152h-76v62h236v-62h-81z" />
    <glyph glyph-name="y" unicode="y" horiz-adv-x="628" 
d="M539 463l-250 -596h86v-62h-243v62h88l54 129l-185 467h-84v62h240v-62h-83l148 -384l157 384h-82v62h238v-62h-84z" />
    <glyph glyph-name="z" unicode="z" horiz-adv-x="499" 
d="M395 159h59v-159h-399v56l301 407h-226v-101h-59v163h368v-61l-295 -402h251v97z" />
    <glyph glyph-name="braceleft" unicode="{" horiz-adv-x="434" 
d="M267 173v-184c0 -61 16 -93 78 -112c-40 -1 -74 0 -108 25s-37 66 -37 105v184c0 30 0 49 -21 74c-15 17 -35 28 -58 33c18 3 36 11 51 22c29 23 28 52 28 85v163c0 109 30 151 145 146c-59 -17 -78 -52 -78 -111v-172c0 -69 -11 -117 -87 -133c72 -16 87 -57 87 -125z
" />
    <glyph glyph-name="bar" unicode="|" horiz-adv-x="240" 
d="M89 750h62v-1000h-62v1000z" />
    <glyph glyph-name="braceright" unicode="}" horiz-adv-x="433" 
d="M165 431v172c0 59 -18 94 -77 111c115 5 144 -37 144 -146v-163c0 -33 -1 -62 29 -85c14 -11 32 -19 50 -22c-22 -5 -43 -16 -58 -33c-21 -25 -21 -44 -21 -74v-184c0 -39 -2 -80 -36 -105s-68 -25 -108 -25c61 19 77 51 77 112v184c0 68 15 109 87 125
c-75 16 -87 64 -87 133z" />
    <glyph glyph-name="asciitilde" unicode="~" horiz-adv-x="649" 
d="M550 420l47 -30c-37 -52 -75 -102 -145 -102c-36 0 -66 12 -99 24l-53 20c-29 11 -62 26 -94 26c-53 0 -81 -39 -107 -80l-47 30c38 59 80 109 156 109c39 0 84 -17 127 -35c44 -17 85 -35 115 -35c49 0 75 36 100 73z" />
    <glyph glyph-name="exclamdown" unicode="&#xa1;" horiz-adv-x="310" 
d="M121 416v109h69v-109h-69zM121 -190v532h69v-532h-69z" />
    <glyph glyph-name="cent" unicode="&#xa2;" horiz-adv-x="579" 
d="M493 443h-61c-21 35 -59 61 -99 67v-311c41 11 72 31 97 66h74c-29 -72 -96 -118 -171 -132v-93h-58v93c-112 12 -199 109 -199 222c0 115 86 209 199 224v94h58v-94c45 -8 83 -27 113 -63v56h47v-129zM275 199v311c-77 -12 -131 -77 -131 -156c0 -76 56 -142 131 -155z
" />
    <glyph glyph-name="sterling" unicode="&#xa3;" horiz-adv-x="608" 
d="M186 387h244v-56h-202c43 -43 81 -86 81 -151c0 -48 -17 -89 -51 -122h85c43 0 90 3 127 30c35 26 54 69 54 113c0 13 -2 26 -7 38h65c5 -14 6 -28 6 -42c0 -58 -22 -110 -67 -148c-49 -42 -106 -49 -169 -49h-292v58h115c42 22 61 73 61 119c0 67 -48 111 -93 154h-127
v56h88c-26 36 -39 71 -39 116c0 123 110 227 233 227c74 0 126 -29 170 -86v69h65v-173h-65c-11 76 -84 127 -159 127c-95 0 -170 -73 -170 -170c0 -42 17 -80 47 -110z" />
    <glyph glyph-name="fraction" unicode="&#x2044;" horiz-adv-x="494" 
d="M118 0h-58l317 714h57z" />
    <glyph glyph-name="yen" unicode="&#xa5;" horiz-adv-x="504" 
d="M366 0h-215v62h77v174l-17 36h-200v45h181l-24 56h-157v44h136l-103 235h-73v62h212v-62h-76l151 -345l141 345h-77v62h211v-62h-71l-96 -235h136v-44h-156l-24 -56h180v-45h-199l-14 -36v-174h77v-62z" />
    <glyph glyph-name="florin" unicode="&#x192;" horiz-adv-x="500" 
d="M303 397l-69 -363c-11 -55 -24 -96 -73 -132c-41 -31 -87 -41 -137 -44l10 55c28 2 55 8 78 23c40 25 47 59 56 99l68 362h-87l9 50h88c14 59 21 154 55 203c40 56 107 79 177 83l-11 -56c-44 -2 -86 -19 -111 -54c-24 -36 -32 -133 -43 -176h89l-9 -50h-90z" />
    <glyph glyph-name="section" unicode="&#xa7;" horiz-adv-x="501" 
d="M68 40l62 -2c-5 -76 56 -111 125 -111c64 0 120 37 120 105c0 31 -17 60 -42 78c-27 18 -53 22 -84 29c-81 17 -161 60 -161 155c0 75 49 129 120 146c-57 22 -103 64 -103 130c0 86 73 144 156 144c78 0 165 -44 166 -131l-59 2c0 52 -57 75 -102 75
c-56 0 -101 -39 -101 -96c0 -63 65 -91 115 -107c34 -11 63 -19 92 -41c37 -29 61 -72 61 -120c0 -64 -43 -115 -102 -136c59 -19 102 -68 102 -133c0 -102 -85 -158 -180 -158c-93 0 -185 58 -185 159v12zM257 196c63 0 116 37 116 104c0 54 -58 98 -110 98
c-57 0 -118 -36 -118 -99c0 -60 55 -103 112 -103z" />
    <glyph glyph-name="currency" unicode="&#xa4;" horiz-adv-x="580" 
d="M50 142l55 54c-33 40 -50 93 -50 143c0 51 17 105 50 145l-55 53l40 41l54 -54c42 33 91 50 145 50c52 0 104 -17 144 -50l54 54l40 -41l-53 -53c34 -43 49 -90 49 -145c0 -56 -17 -99 -49 -143l53 -54l-41 -39l-53 53c-40 -32 -91 -51 -142 -51c-57 0 -102 18 -147 51
l-53 -53zM290 515c-97 0 -175 -78 -175 -174c0 -95 77 -175 173 -175s176 76 176 173s-77 176 -174 176z" />
    <glyph glyph-name="quotesingle" unicode="'" horiz-adv-x="271" 
d="M159 487h-47l-11 227h70z" />
    <glyph glyph-name="quotedblleft" unicode="&#x201c;" horiz-adv-x="306" 
d="M83 714l74 -183h-63l-74 183h63zM212 714l74 -183h-63l-75 183h64z" />
    <glyph glyph-name="guillemotleft" unicode="&#xab;" horiz-adv-x="375" 
d="M172 69l-115 172v40l115 171l15 -56l-85 -137l85 -136zM292 83l-108 158v39l108 161l15 -58l-78 -124l78 -123z" />
    <glyph glyph-name="guilsinglleft" unicode="&#x2039;" horiz-adv-x="263" 
d="M176 69l-115 172v40l115 171l15 -56l-85 -137l85 -136z" />
    <glyph glyph-name="guilsinglright" unicode="&#x203a;" horiz-adv-x="264" 
d="M86 69l-14 54l85 136l-85 137l14 56l116 -171v-40z" />
    <glyph glyph-name="fi" unicode="&#xfb01;" horiz-adv-x="520" 
d="M417 62h88v-62h-470v62h88v403h-88v64h88v9c2 60 3 107 51 150c35 32 80 42 126 45v-59c-26 -2 -52 -9 -73 -25c-36 -27 -36 -65 -37 -106v-14h227v-467zM417 714v-103h-66v103h66zM351 62v403h-162v-403h162z" />
    <glyph glyph-name="fl" unicode="&#xfb02;" horiz-adv-x="519" 
d="M416 733v-671h88v-62h-469v62h88v403h-88v64h88v9c2 62 3 111 56 154c36 30 87 41 133 41h104zM189 465v-403h161v612h-25c-37 0 -67 -2 -98 -25c-38 -29 -37 -67 -38 -111v-9h90v-64h-90z" />
    <glyph glyph-name="endash" unicode="&#x2013;" horiz-adv-x="600" 
d="M556 228h-512v66h512v-66z" />
    <glyph glyph-name="dagger" unicode="&#x2020;" horiz-adv-x="676" 
d="M373 438v-570h-69v570h-214v55h214v221h69v-221h213v-55h-213z" />
    <glyph glyph-name="daggerdbl" unicode="&#x2021;" horiz-adv-x="671" 
d="M369 444v-123h212v-54h-212v-399h-70v399h-209v54h209v123h-209v54h209v216h70v-216h212v-54h-212z" />
    <glyph glyph-name="periodcentered" unicode="&#xb7;" horiz-adv-x="328" 
d="M199 413v-109h-69v109h69z" />
    <glyph glyph-name="paragraph" unicode="&#xb6;" horiz-adv-x="494" 
d="M227 714h248v-62h-88v-781h-52v781h-82v-781h-53v486c-99 3 -178 77 -178 178c0 52 22 101 61 135c43 38 88 44 144 44z" />
    <glyph glyph-name="bullet" unicode="&#x2022;" horiz-adv-x="406" 
d="M362 536v-357h-318v357h318z" />
    <glyph glyph-name="quotesinglbase" unicode="&#x201a;" horiz-adv-x="217" 
d="M103 -97h-63l74 184h63z" />
    <glyph glyph-name="quotedblbase" unicode="&#x201e;" horiz-adv-x="346" 
d="M232 -97h-64l75 184h63zM103 -97h-63l74 184h63z" />
    <glyph glyph-name="quotedblright" unicode="&#x201d;" horiz-adv-x="307" 
d="M212 531h-63l75 183h63zM83 531h-63l74 183h63z" />
    <glyph glyph-name="guillemotright" unicode="&#xbb;" horiz-adv-x="375" 
d="M203 69l-15 54l85 136l-85 137l15 56l115 -171v-40zM83 83l-15 53l79 123l-79 124l15 58l109 -161v-39z" />
    <glyph glyph-name="ellipsis" unicode="&#x2026;" horiz-adv-x="1049" 
d="M226 109v-109h-69v109h69zM559 109v-109h-69v109h69zM892 109v-109h-69v109h69z" />
    <glyph glyph-name="perthousand" unicode="&#x2030;" horiz-adv-x="1214" 
d="M614 -13c-94 0 -165 77 -165 169c0 91 76 162 165 162c91 0 165 -74 165 -165s-73 -166 -165 -166zM614 46c60 0 107 49 107 108c0 58 -48 106 -106 106s-108 -45 -108 -104c0 -61 46 -110 107 -110zM210 398c-94 0 -165 77 -165 169c0 91 77 162 166 162
c90 0 164 -75 164 -165c0 -92 -73 -166 -165 -166zM211 456c60 0 107 49 107 109c0 58 -48 106 -106 106s-109 -45 -109 -104c0 -61 46 -111 108 -111zM1003 -13c-93 0 -165 77 -165 169c0 91 77 162 166 162c90 0 165 -74 165 -165s-74 -166 -166 -166zM1004 46
c60 0 107 49 107 108c0 58 -48 106 -106 106s-109 -45 -109 -104c0 -61 47 -110 108 -110zM284 0h-58l317 714h57z" />
    <glyph glyph-name="questiondown" unicode="&#xbf;" horiz-adv-x="573" 
d="M260 416v109h70v-109h-70zM260 345h70c1 -91 -39 -145 -103 -203c-44 -41 -78 -70 -78 -135c0 -84 69 -151 153 -151c85 0 151 72 151 155h70c1 -123 -98 -225 -222 -225c-122 0 -224 97 -224 220c0 85 39 121 97 175c50 47 83 92 86 164z" />
    <glyph glyph-name="grave" unicode="`" horiz-adv-x="585" 
d="M421 645l-25 -50l-247 134l28 58z" />
    <glyph glyph-name="acute" unicode="&#xb4;" horiz-adv-x="590" 
d="M189 597l-24 49l246 139l30 -57z" />
    <glyph glyph-name="circumflex" unicode="&#x2c6;" horiz-adv-x="563" 
d="M474 617h-86l-109 82l-107 -82h-83l172 138h39z" />
    <glyph glyph-name="tilde" unicode="&#x2dc;" horiz-adv-x="529" 
d="M385 736l37 -45c-26 -28 -60 -46 -99 -46c-52 0 -83 35 -121 35c-24 0 -44 -13 -60 -30l-39 49c20 22 56 39 86 39c24 0 43 -9 62 -17c20 -9 39 -18 63 -18c29 0 53 10 71 33z" />
    <glyph glyph-name="macron" unicode="&#xaf;" horiz-adv-x="532" 
d="M426 718v-55h-320v55h320z" />
    <glyph glyph-name="breve" unicode="&#x2d8;" horiz-adv-x="508" 
d="M93 753h48c4 -55 65 -79 113 -79c47 0 109 24 113 79h48c-2 -87 -81 -132 -161 -132s-160 45 -161 132z" />
    <glyph glyph-name="dotaccent" unicode="&#x2d9;" horiz-adv-x="593" 
d="M330 752v-125h-67v125h67z" />
    <glyph glyph-name="dieresis" unicode="&#xa8;" horiz-adv-x="608" 
d="M402 752v-125h-69v125h69zM275 752v-125h-69v125h69z" />
    <glyph glyph-name="ring" unicode="&#x2da;" horiz-adv-x="592" 
d="M297 581c-60 0 -107 47 -107 107c0 59 49 105 107 105s105 -49 105 -106c0 -58 -47 -106 -105 -106zM297 625c35 0 61 29 61 63c0 35 -29 61 -62 61c-36 0 -62 -29 -62 -63c0 -35 29 -61 63 -61z" />
    <glyph glyph-name="cedilla" unicode="&#xb8;" horiz-adv-x="585" 
d="M302 -9l-26 -80c10 5 15 6 26 6c45 0 76 -37 76 -81c0 -47 -36 -88 -84 -88c-46 0 -80 29 -87 75h46c6 -17 20 -29 39 -29c24 0 40 18 40 42s-18 41 -42 41c-15 0 -28 -6 -36 -18l-38 14l39 118h47z" />
    <glyph glyph-name="hungarumlaut" unicode="&#x2dd;" horiz-adv-x="526" 
d="M189 600l-40 22l135 188l48 -24zM317 595l-40 22l135 187l48 -24z" />
    <glyph glyph-name="ogonek" unicode="&#x2db;" horiz-adv-x="557" 
d="M356 -130v-48c-18 -7 -36 -11 -55 -11c-60 0 -101 41 -101 101c0 36 15 63 40 88h47c-23 -17 -36 -34 -36 -64c0 -38 25 -76 65 -76c14 0 27 5 40 10z" />
    <glyph glyph-name="caron" unicode="&#x2c7;" horiz-adv-x="563" 
d="M474 755l-175 -138h-39l-171 138h86l109 -82l107 82h83z" />
    <glyph glyph-name="emdash" unicode="&#x2014;" horiz-adv-x="1100" 
d="M1056 228h-1012v66h1012v-66z" />
    <glyph glyph-name="AE" unicode="&#xc6;" horiz-adv-x="1011" 
d="M889 184h72v-184h-501v66h91v170h-263l-124 -170h91v-66h-255v66h91l405 582h-89v66h554v-184h-72v118h-266v-258h279v-59h-279v-265h266v118zM551 292v335l-228 -335h228z" />
    <glyph glyph-name="ordfeminine" unicode="&#xaa;" horiz-adv-x="450" 
d="M321 409v57c-26 -42 -74 -65 -122 -65c-46 0 -102 31 -128 65c-30 40 -36 72 -36 102c0 36 10 74 34 100c43 47 76 65 129 65c52 0 94 -22 123 -65v57h98v-44h-52v-229h52v-43h-98zM201 446c68 0 121 54 121 122c0 66 -54 120 -120 120s-120 -55 -120 -121
c0 -65 53 -121 119 -121z" />
    <glyph glyph-name="Lslash" unicode="&#x141;" horiz-adv-x="539" 
d="M509 184v-184h-469v66h91v252l-101 -76v71l101 74v261h-91v66h254v-66h-91v-223l127 89v-69l-127 -90v-289h234v118h72z" />
    <glyph glyph-name="Oslash" unicode="&#xd8;" horiz-adv-x="749" 
d="M160 49l-86 -107l-43 35l88 107c-79 74 -119 166 -119 273c0 211 167 376 379 376c79 0 135 -22 201 -63l11 -6l81 99l43 -34l-81 -99c77 -75 115 -166 115 -273c0 -203 -167 -371 -373 -371c-64 0 -129 15 -185 46zM587 572l-379 -464c53 -30 103 -50 165 -50
c172 0 304 136 304 304c0 84 -33 151 -90 210zM166 143l380 464c-55 34 -103 54 -169 54c-171 0 -305 -135 -305 -303c0 -86 35 -153 94 -215z" />
    <glyph glyph-name="OE" unicode="&#x152;" horiz-adv-x="1130" 
d="M1008 532v116h-266v-258h261v-59h-261v-265h266v118h71v-184h-409v185c-54 -123 -170 -199 -304 -199c-125 0 -264 76 -327 199c-17 33 -39 101 -39 180c0 73 18 132 41 173c64 114 184 195 326 195c134 0 250 -70 303 -195v176h410v-182h-72zM72 363
c0 -166 129 -305 297 -305c167 0 295 141 295 305c0 82 -32 156 -85 210c-52 54 -126 88 -209 88c-84 0 -158 -33 -212 -87c-53 -53 -86 -128 -86 -211z" />
    <glyph glyph-name="ordmasculine" unicode="&#xba;" horiz-adv-x="435" 
d="M218 402c-91 0 -165 74 -165 165c0 92 74 166 166 166c90 0 164 -73 164 -163c0 -92 -72 -168 -165 -168zM218 445c68 0 122 55 122 123c0 67 -54 122 -121 122c-68 0 -123 -54 -123 -122c0 -67 54 -123 122 -123z" />
    <glyph glyph-name="ae" unicode="&#xe6;" horiz-adv-x="1057" 
d="M561 525v-122c45 84 121 131 218 131c107 0 188 -58 229 -131c24 -43 39 -89 39 -145v-18h-486c8 -109 104 -189 210 -189c80 0 128 31 178 97h76l-21 -35c-45 -75 -124 -127 -224 -127c-91 0 -176 48 -219 127v-113h-66v119c-40 -83 -115 -133 -210 -133
c-99 0 -189 54 -237 133c-30 49 -38 93 -38 138c0 49 12 109 46 153c59 77 140 124 226 124c90 0 170 -46 213 -124v115h66zM286 51c121 1 209 93 209 213c0 116 -94 204 -208 204c-113 0 -211 -90 -211 -204c0 -116 92 -212 210 -213zM561 293h420
c-15 101 -106 175 -209 175c-106 0 -192 -70 -211 -175z" />
    <glyph glyph-name="dotlessi" unicode="&#x131;" horiz-adv-x="294" 
d="M191 525v-463h88v-62h-244v62h90v401h-88v62h154z" />
    <glyph glyph-name="lslash" unicode="&#x142;" horiz-adv-x="302" 
d="M273 0h-242v62h88v294l-89 -69v64l89 70v231h-86v62h152v-250l89 69v-65l-89 -69v-337h88v-62z" />
    <glyph glyph-name="oslash" unicode="&#xf8;" horiz-adv-x="573" 
d="M146 23l-55 -77l-41 31l55 76c-61 53 -95 125 -95 206c0 155 124 275 278 275c51 0 97 -12 141 -37l56 78l41 -31l-56 -77c56 -52 93 -123 93 -201c0 -157 -120 -280 -278 -280c-51 0 -94 12 -139 37zM429 412l-241 -336c35 -16 60 -24 100 -24c120 0 209 93 209 210
c0 59 -27 110 -68 150zM147 108l242 335c-35 19 -64 28 -105 28c-113 0 -208 -93 -208 -206c0 -62 26 -114 71 -157z" />
    <glyph glyph-name="oe" unicode="&#x153;" horiz-adv-x="1059" 
d="M952 150h75c-41 -100 -145 -164 -254 -164c-105 0 -200 54 -242 151c-43 -94 -141 -151 -245 -151c-152 0 -276 124 -276 274c0 153 124 274 279 274c103 0 202 -60 242 -156c41 99 136 156 244 156c148 0 274 -123 274 -270v-24h-484c5 -107 98 -189 205 -189
c75 0 142 36 182 99zM566 294h412c-18 99 -101 177 -205 177c-105 0 -193 -76 -207 -177zM284 50c119 0 213 95 213 212c0 116 -96 209 -212 209c-119 0 -213 -96 -213 -213c0 -115 97 -208 212 -208z" />
    <glyph glyph-name="germandbls" unicode="&#xdf;" horiz-adv-x="585" 
d="M111 62v432c0 59 7 106 45 155s100 78 162 78c107 0 200 -84 200 -193c0 -72 -37 -136 -106 -161c99 -12 162 -91 162 -191c0 -115 -84 -198 -200 -198c-34 0 -69 9 -99 25v64c30 -18 54 -27 90 -27c77 0 139 62 139 139c0 42 -22 86 -54 112c-36 28 -79 35 -123 35h-25
l-9 -1v62c82 -6 153 50 153 135c0 72 -58 131 -131 131c-43 0 -82 -21 -107 -56c-26 -38 -26 -76 -26 -120v-483h-159v62h88z" />
    <glyph glyph-name="onesuperior" unicode="&#xb9;" horiz-adv-x="284" 
d="M185 714v-391h64v-37h-174v37h63v357h-93v34h140z" />
    <glyph glyph-name="logicalnot" unicode="&#xac;" horiz-adv-x="758" 
d="M640 155v247h-582v61h642v-308h-60z" />
    <glyph glyph-name="mu" unicode="&#xb5;" horiz-adv-x="689" 
d="M499 0v88h-2c-32 -64 -98 -102 -173 -102c-50 0 -103 22 -140 55v-236h-66v658h-88v62h154v-295c0 -91 38 -182 159 -182c14 0 156 8 156 182v233h-88v62h154v-463h89v-62h-155z" />
    <glyph glyph-name="trademark" unicode="&#x2122;" horiz-adv-x="925" 
d="M875 714v-407h-63v350l-141 -350h-38l-138 350v-350h-64v407h104l116 -287l122 287h102zM359 714v-57h-129v-350h-71v350h-130v57h330z" />
    <glyph glyph-name="Eth" unicode="&#xd0;" horiz-adv-x="723" 
d="M30 333v56h92v259h-92v66h318c102 0 179 -24 254 -97c70 -69 106 -164 106 -262c0 -94 -37 -185 -102 -254c-73 -77 -154 -101 -258 -101h-318v66h92v267h-92zM194 648v-259h164v-56h-164v-267h140c86 0 157 14 218 79c52 55 84 135 84 211c0 80 -31 164 -90 220
c-63 60 -124 72 -209 72h-143z" />
    <glyph glyph-name="onehalf" unicode="&#xbd;" horiz-adv-x="869" 
d="M278 0h-58l317 714h57zM185 714v-391h64v-37h-174v37h63v357h-93v34h140zM774 104h41v-104h-295v37l196 177c29 26 56 51 56 91c0 53 -45 94 -102 94c-67 0 -102 -47 -102 -102h-45c0 80 62 143 150 143c78 0 144 -55 144 -136c0 -55 -35 -87 -74 -121l-164 -146h195v67z
" />
    <glyph glyph-name="plusminus" unicode="&#xb1;" horiz-adv-x="623" 
d="M57 449h223v162h62v-162h223v-61h-223v-162h-62v162h-223v61zM57 165h508v-61h-508v61z" />
    <glyph glyph-name="Thorn" unicode="&#xde;" horiz-adv-x="580" 
d="M193 159v-93h91v-66h-254v66h91v582h-91v66h254v-66h-91v-72h129c133 0 248 -65 248 -204c0 -140 -107 -213 -241 -213h-136zM193 225h129c95 0 176 42 176 145c0 97 -85 140 -177 140h-128v-285z" />
    <glyph glyph-name="onequarter" unicode="&#xbc;" horiz-adv-x="824" 
d="M255 0h-58l317 714h57zM789 140v-35h-68v-68h62v-37h-168v37h61v68h-228v35l218 288h55v-288h68zM185 322h64v-36h-173v36h62v357h-93v35h140v-392zM676 140v238l-177 -238h177z" />
    <glyph glyph-name="divide" unicode="&#xf7;" horiz-adv-x="620" 
d="M562 327h-504v61h504v-61zM279 140v109h62v-109h-62zM279 575h62v-109h-62v109z" />
    <glyph glyph-name="brokenbar" unicode="&#xa6;" horiz-adv-x="240" 
d="M89 675h62v-350h-62v350zM89 175h62v-350h-62v350z" />
    <glyph glyph-name="degree" unicode="&#xb0;" horiz-adv-x="431" 
d="M366 583c0 -83 -67 -150 -150 -150s-150 67 -150 150c-1 83 67 150 150 150s150 -67 150 -150zM326 583c0 60 -50 110 -111 110c-59 0 -109 -50 -109 -110s50 -110 110 -110s110 50 110 110z" />
    <glyph glyph-name="thorn" unicode="&#xfe;" horiz-adv-x="670" 
d="M174 714v-306h2c44 82 121 126 215 126c152 0 269 -123 269 -274s-119 -274 -269 -274c-89 0 -175 46 -215 125h-2v-244h88v-62h-242v62h88v785h-88v62h154zM383 48c115 0 211 96 211 212c0 130 -98 218 -207 212c-114 -6 -214 -82 -214 -211c0 -117 93 -213 210 -213z
" />
    <glyph glyph-name="threequarters" unicode="&#xbe;" horiz-adv-x="909" 
d="M874 140v-35h-68v-68h62v-37h-168v37h61v68h-228v35l218 288h55v-288h68zM761 140v237l-177 -237h177zM347 0h-58l317 714h57zM190 518h-24v34h32c38 0 79 23 79 71c0 43 -33 74 -79 74c-40 0 -74 -30 -76 -68h-44c2 61 59 104 122 104c64 0 120 -43 120 -105
c0 -40 -21 -76 -62 -91c54 -16 91 -64 91 -118c0 -75 -69 -134 -149 -134c-83 0 -150 53 -155 131h48c4 -50 47 -93 102 -93c61 0 106 45 106 100c0 56 -54 95 -111 95z" />
    <glyph glyph-name="twosuperior" unicode="&#xb2;" horiz-adv-x="387" 
d="M299 397h41v-104h-295v37l196 177c29 26 56 51 56 91c0 53 -45 94 -102 94c-67 0 -102 -47 -102 -102h-45c0 80 62 143 150 143c78 0 144 -55 144 -136c0 -55 -35 -87 -74 -121l-164 -146h195v67z" />
    <glyph glyph-name="registered" unicode="&#xae;" horiz-adv-x="794" 
d="M394 -14c-204 0 -367 170 -367 375c0 207 167 372 370 372c204 0 368 -168 368 -374c0 -207 -167 -373 -371 -373zM399 36v2c175 -2 316 148 316 323c0 179 -145 322 -321 322c-174 0 -317 -146 -317 -322c0 -181 143 -325 322 -325zM468 343l126 -201h-72l-119 201h-96
v-201h-62v445h200c35 0 73 -1 105 -21c37 -21 52 -60 52 -101c0 -84 -56 -120 -134 -122zM307 391h115c55 0 117 8 117 78c0 65 -60 72 -109 72h-123v-150z" />
    <glyph glyph-name="minus" unicode="&#x2212;" horiz-adv-x="618" 
d="M560 327h-503v61h503v-61z" />
    <glyph glyph-name="eth" unicode="&#xf0;" horiz-adv-x="594" 
d="M278 604l-147 -58l-48 37l138 53c-46 23 -86 39 -111 46l74 32c16 -5 60 -20 113 -49l127 49l45 -36l-119 -46c96 -68 210 -186 210 -352c0 -169 -121 -294 -275 -294c-152 0 -275 123 -275 273c0 153 124 275 277 275c46 0 90 -18 132 -52c-38 52 -99 97 -141 122z
M285 51c116 0 209 94 209 209c0 114 -92 209 -208 209s-210 -93 -210 -208c0 -114 92 -210 209 -210z" />
    <glyph glyph-name="multiply" unicode="&#xd7;" horiz-adv-x="564" 
d="M58 178l180 180l-180 180l44 44l180 -180l180 180l44 -44l-180 -180l180 -180l-44 -44l-180 180l-180 -180z" />
    <glyph glyph-name="threesuperior" unicode="&#xb3;" horiz-adv-x="394" 
d="M190 518h-24v34h32c38 0 79 23 79 71c0 43 -33 74 -79 74c-40 0 -74 -30 -76 -68h-44c2 61 59 104 122 104c64 0 120 -43 120 -105c0 -40 -21 -76 -62 -91c54 -16 91 -64 91 -118c0 -75 -69 -134 -149 -134c-83 0 -150 53 -155 131h48c4 -50 47 -93 102 -93
c61 0 106 45 106 100c0 56 -54 95 -111 95z" />
    <glyph glyph-name="copyright" unicode="&#xa9;" horiz-adv-x="792" 
d="M392 -14c-202 0 -365 170 -365 374c0 206 164 373 369 373c201 0 367 -166 367 -370c0 -211 -163 -377 -371 -377zM396 36v2c174 -2 317 143 317 320c0 181 -141 325 -319 325c-174 0 -317 -146 -317 -322c0 -179 143 -325 319 -325zM536 284l60 -19
c-28 -86 -116 -126 -200 -126c-127 0 -209 91 -209 218c0 132 91 228 222 228c77 0 169 -39 187 -122l-68 -16c-11 63 -58 96 -122 96c-102 0 -153 -89 -153 -183c0 -95 49 -177 151 -177c66 0 111 38 132 101z" />
    <glyph glyph-name="Aacute" unicode="&#xc1;" 
d="M809 0h-262v66h93l-71 164h-331l-73 -164h90v-66h-255v66h89l259 582h-95v66h187l280 -648h89v-66zM548 289l-143 344l-146 -344h289zM288 786l-24 49l246 139l30 -57z" />
    <glyph glyph-name="Acircumflex" unicode="&#xc2;" 
d="M809 0h-262v66h93l-71 164h-331l-73 -164h90v-66h-255v66h89l259 582h-95v66h187l280 -648h89v-66zM548 289l-143 344l-146 -344h289zM599 806h-86l-109 82l-107 -82h-83l172 138h39z" />
    <glyph glyph-name="Adieresis" unicode="&#xc4;" 
d="M809 0h-262v66h93l-71 164h-331l-73 -164h90v-66h-255v66h89l259 582h-95v66h187l280 -648h89v-66zM548 289l-143 344l-146 -344h289zM501 941v-125h-69v125h69zM374 941v-125h-69v125h69z" />
    <glyph glyph-name="Agrave" unicode="&#xc0;" 
d="M809 0h-262v66h93l-71 164h-331l-73 -164h90v-66h-255v66h89l259 582h-95v66h187l280 -648h89v-66zM548 289l-143 344l-146 -344h289zM536 834l-25 -50l-247 134l28 58z" />
    <glyph glyph-name="Aring" unicode="&#xc5;" 
d="M809 0h-262v66h93l-71 164h-331l-73 -164h90v-66h-255v66h89l259 582h-95v66h187l280 -648h89v-66zM548 289l-143 344l-146 -344h289zM402 770c-60 0 -107 47 -107 107c0 59 49 105 107 105s105 -49 105 -106c0 -58 -47 -106 -105 -106zM402 814c35 0 61 29 61 63
c0 35 -29 61 -62 61c-36 0 -62 -29 -62 -63c0 -35 29 -61 63 -61z" />
    <glyph glyph-name="Atilde" unicode="&#xc3;" 
d="M809 0h-262v66h93l-71 164h-331l-73 -164h90v-66h-255v66h89l259 582h-95v66h187l280 -648h89v-66zM548 289l-143 344l-146 -344h289zM527 925l37 -45c-26 -28 -60 -46 -99 -46c-52 0 -83 35 -121 35c-24 0 -44 -13 -60 -30l-39 49c20 22 56 39 86 39c24 0 43 -9 62 -17
c20 -9 39 -18 63 -18c29 0 53 10 71 33z" />
    <glyph glyph-name="Ccedilla" unicode="&#xc7;" horiz-adv-x="737" 
d="M685 540h-66c-53 80 -151 121 -246 121c-167 0 -301 -131 -301 -298c0 -165 129 -305 299 -305c100 0 192 47 250 129h80c-60 -124 -191 -201 -328 -201c-6 0 -12 0 -17 1l-25 -76c10 5 15 6 26 6c45 0 76 -37 76 -81c0 -47 -36 -88 -84 -88c-46 0 -80 29 -87 75h46
c6 -17 20 -29 39 -29c24 0 40 18 40 42s-18 41 -42 41c-15 0 -28 -6 -36 -18l-38 14l40 120c-72 10 -146 47 -202 102c-73 72 -109 167 -109 268c0 102 42 194 112 267c63 65 158 103 260 103c96 0 185 -34 247 -103v84h66v-174z" />
    <glyph glyph-name="Eacute" unicode="&#xc9;" horiz-adv-x="583" 
d="M461 184h72v-184h-503v66h91v582h-91v66h503v-184h-72v118h-268v-258h276v-59h-276v-265h268v118zM171 786l-24 49l246 139l30 -57z" />
    <glyph glyph-name="Ecircumflex" unicode="&#xca;" horiz-adv-x="583" 
d="M461 184h72v-184h-503v66h91v582h-91v66h503v-184h-72v118h-268v-258h276v-59h-276v-265h268v118zM482 806h-86l-109 82l-107 -82h-83l172 138h39z" />
    <glyph glyph-name="Edieresis" unicode="&#xcb;" horiz-adv-x="583" 
d="M461 184h72v-184h-503v66h91v582h-91v66h503v-184h-72v118h-268v-258h276v-59h-276v-265h268v118zM384 941v-125h-69v125h69zM257 941v-125h-69v125h69z" />
    <glyph glyph-name="Egrave" unicode="&#xc8;" horiz-adv-x="583" 
d="M461 184h72v-184h-503v66h91v582h-91v66h503v-184h-72v118h-268v-258h276v-59h-276v-265h268v118zM419 834l-25 -50l-247 134l28 58z" />
    <glyph glyph-name="Iacute" unicode="&#xcd;" horiz-adv-x="319" 
d="M192 648v-582h91v-66h-254v66h91v582h-91v66h254v-66h-91zM40 786l-24 49l246 139l30 -57z" />
    <glyph glyph-name="Icircumflex" unicode="&#xce;" horiz-adv-x="292" 
d="M179 648v-582h91v-66h-254v66h91v582h-91v66h254v-66h-91zM338 806h-86l-109 82l-107 -82h-83l172 138h39z" />
    <glyph glyph-name="Idieresis" unicode="&#xcf;" horiz-adv-x="314" 
d="M193 648v-582h91v-66h-254v66h91v582h-91v66h254v-66h-91zM254 941v-125h-69v125h69zM127 941v-125h-69v125h69z" />
    <glyph glyph-name="Igrave" unicode="&#xcc;" horiz-adv-x="314" 
d="M199 648v-582h91v-66h-254v66h91v582h-91v66h254v-66h-91zM295 834l-25 -50l-247 134l28 58z" />
    <glyph glyph-name="Ntilde" unicode="&#xd1;" horiz-adv-x="805" 
d="M694 648v-648h-74l-427 597v-531h92v-66h-255v66h91v582h-91v66h164l428 -600v534h-91v66h254v-66h-91zM530 925l37 -45c-26 -28 -60 -46 -99 -46c-52 0 -83 35 -121 35c-24 0 -44 -13 -60 -30l-39 49c20 22 56 39 86 39c24 0 43 -9 62 -17c20 -9 39 -18 63 -18
c29 0 53 10 71 33z" />
    <glyph glyph-name="Oacute" unicode="&#xd3;" horiz-adv-x="751" 
d="M377 -14c-208 0 -377 166 -377 373c0 208 168 374 377 374c205 0 374 -166 374 -369c0 -208 -165 -378 -374 -378zM376 57c168 1 303 137 303 304c0 164 -135 300 -302 300c-168 0 -305 -134 -305 -300c0 -168 135 -303 304 -303v-1zM262 786l-24 49l246 139l30 -57z" />
    <glyph glyph-name="Ocircumflex" unicode="&#xd4;" horiz-adv-x="751" 
d="M377 -14c-208 0 -377 166 -377 373c0 208 168 374 377 374c205 0 374 -166 374 -369c0 -208 -165 -378 -374 -378zM376 57c168 1 303 137 303 304c0 164 -135 300 -302 300c-168 0 -305 -134 -305 -300c0 -168 135 -303 304 -303v-1zM573 806h-86l-109 82l-107 -82h-83
l172 138h39z" />
    <glyph glyph-name="Odieresis" unicode="&#xd6;" horiz-adv-x="751" 
d="M377 -14c-208 0 -377 166 -377 373c0 208 168 374 377 374c205 0 374 -166 374 -369c0 -208 -165 -378 -374 -378zM376 57c168 1 303 137 303 304c0 164 -135 300 -302 300c-168 0 -305 -134 -305 -300c0 -168 135 -303 304 -303v-1zM475 941v-125h-69v125h69zM348 941
v-125h-69v125h69z" />
    <glyph glyph-name="Ograve" unicode="&#xd2;" horiz-adv-x="751" 
d="M377 -14c-208 0 -377 166 -377 373c0 208 168 374 377 374c205 0 374 -166 374 -369c0 -208 -165 -378 -374 -378zM376 57c168 1 303 137 303 304c0 164 -135 300 -302 300c-168 0 -305 -134 -305 -300c0 -168 135 -303 304 -303v-1zM510 834l-25 -50l-247 134l28 58z
" />
    <glyph glyph-name="Otilde" unicode="&#xd5;" horiz-adv-x="751" 
d="M377 -14c-208 0 -377 166 -377 373c0 208 168 374 377 374c205 0 374 -166 374 -369c0 -208 -165 -378 -374 -378zM376 57c168 1 303 137 303 304c0 164 -135 300 -302 300c-168 0 -305 -134 -305 -300c0 -168 135 -303 304 -303v-1zM501 925l37 -45
c-26 -28 -60 -46 -99 -46c-52 0 -83 35 -121 35c-24 0 -44 -13 -60 -30l-39 49c20 22 56 39 86 39c24 0 43 -9 62 -17c20 -9 39 -18 63 -18c29 0 53 10 71 33z" />
    <glyph glyph-name="Scaron" unicode="&#x160;" horiz-adv-x="513" 
d="M451 543h-60c-9 81 -68 127 -142 127c-72 0 -137 -50 -137 -125c0 -38 16 -76 47 -99c32 -24 80 -33 119 -42c52 -12 101 -24 143 -60c44 -36 67 -89 67 -145c0 -49 -9 -89 -41 -129c-45 -57 -102 -84 -178 -84c-66 0 -125 28 -162 84v-70h-60v192h60
c9 -85 70 -141 159 -141c81 0 150 58 150 141c0 104 -81 128 -166 149c-49 13 -94 22 -136 53c-49 36 -74 89 -74 149c0 51 17 86 37 113c38 52 106 77 173 77c56 0 117 -25 141 -77v58h60v-171zM463 944l-175 -138h-39l-171 138h86l109 -82l107 82h83z" />
    <glyph glyph-name="Uacute" unicode="&#xda;" horiz-adv-x="668" 
d="M567 648v-411c0 -66 -11 -123 -57 -176c-44 -49 -108 -75 -175 -75s-129 23 -175 73c-51 56 -59 115 -59 187v402h-91v66h249v-66h-86v-394c0 -48 2 -92 30 -133c31 -43 78 -63 131 -63c49 0 93 17 124 55c33 42 37 89 37 140v395h-86v66h249v-66h-91zM220 786l-24 49
l246 139l30 -57z" />
    <glyph glyph-name="Ucircumflex" unicode="&#xdb;" horiz-adv-x="668" 
d="M567 648v-411c0 -66 -11 -123 -57 -176c-44 -49 -108 -75 -175 -75s-129 23 -175 73c-51 56 -59 115 -59 187v402h-91v66h249v-66h-86v-394c0 -48 2 -92 30 -133c31 -43 78 -63 131 -63c49 0 93 17 124 55c33 42 37 89 37 140v395h-86v66h249v-66h-91zM531 806h-86
l-109 82l-107 -82h-83l172 138h39z" />
    <glyph glyph-name="Udieresis" unicode="&#xdc;" horiz-adv-x="668" 
d="M567 648v-411c0 -66 -11 -123 -57 -176c-44 -49 -108 -75 -175 -75s-129 23 -175 73c-51 56 -59 115 -59 187v402h-91v66h249v-66h-86v-394c0 -48 2 -92 30 -133c31 -43 78 -63 131 -63c49 0 93 17 124 55c33 42 37 89 37 140v395h-86v66h249v-66h-91zM433 941v-125h-69
v125h69zM306 941v-125h-69v125h69z" />
    <glyph glyph-name="Ugrave" unicode="&#xd9;" horiz-adv-x="668" 
d="M567 648v-411c0 -66 -11 -123 -57 -176c-44 -49 -108 -75 -175 -75s-129 23 -175 73c-51 56 -59 115 -59 187v402h-91v66h249v-66h-86v-394c0 -48 2 -92 30 -133c31 -43 78 -63 131 -63c49 0 93 17 124 55c33 42 37 89 37 140v395h-86v66h249v-66h-91zM468 834l-25 -50
l-247 134l28 58z" />
    <glyph glyph-name="Yacute" unicode="&#xdd;" horiz-adv-x="664" 
d="M374 240v-174h91v-66h-255v66h92v174l-217 408h-85v66h249v-66h-88l177 -340l168 340h-92v66h250v-66h-85zM218 786l-24 49l246 139l30 -57z" />
    <glyph glyph-name="Ydieresis" unicode="&#x178;" horiz-adv-x="664" 
d="M374 240v-174h91v-66h-255v66h92v174l-217 408h-85v66h249v-66h-88l177 -340l168 340h-92v66h250v-66h-85zM431 941v-125h-69v125h69zM304 941v-125h-69v125h69z" />
    <glyph glyph-name="Zcaron" unicode="&#x17d;" horiz-adv-x="558" 
d="M523 185v-185h-483v59l371 589h-297v-119h-62v185h447v-57l-372 -591h334v119h62zM473 944l-175 -138h-39l-171 138h86l109 -82l107 82h83z" />
    <glyph glyph-name="aacute" unicode="&#xe1;" horiz-adv-x="680" 
d="M497 0v109c-46 -79 -123 -123 -214 -123c-96 0 -184 47 -230 123c-26 43 -44 93 -42 151c0 76 22 111 44 150c43 76 132 124 227 124s167 -44 215 -124v115h153v-62h-87v-401h87v-62h-153zM289 469c-116 0 -212 -94 -212 -210c0 -113 94 -209 209 -209
c119 0 212 94 212 211c0 115 -94 208 -209 208zM212 597l-24 49l246 139l30 -57z" />
    <glyph glyph-name="acircumflex" unicode="&#xe2;" horiz-adv-x="680" 
d="M497 0v109c-46 -79 -123 -123 -214 -123c-96 0 -184 47 -230 123c-26 43 -44 93 -42 151c0 76 22 111 44 150c43 76 132 124 227 124s167 -44 215 -124v115h153v-62h-87v-401h87v-62h-153zM289 469c-116 0 -212 -94 -212 -210c0 -113 94 -209 209 -209
c119 0 212 94 212 211c0 115 -94 208 -209 208zM523 617h-86l-109 82l-107 -82h-83l172 138h39z" />
    <glyph glyph-name="adieresis" unicode="&#xe4;" horiz-adv-x="680" 
d="M497 0v109c-46 -79 -123 -123 -214 -123c-96 0 -184 47 -230 123c-26 43 -44 93 -42 151c0 76 22 111 44 150c43 76 132 124 227 124s167 -44 215 -124v115h153v-62h-87v-401h87v-62h-153zM289 469c-116 0 -212 -94 -212 -210c0 -113 94 -209 209 -209
c119 0 212 94 212 211c0 115 -94 208 -209 208zM425 752v-125h-69v125h69zM298 752v-125h-69v125h69z" />
    <glyph glyph-name="agrave" unicode="&#xe0;" horiz-adv-x="680" 
d="M497 0v109c-46 -79 -123 -123 -214 -123c-96 0 -184 47 -230 123c-26 43 -44 93 -42 151c0 76 22 111 44 150c43 76 132 124 227 124s167 -44 215 -124v115h153v-62h-87v-401h87v-62h-153zM289 469c-116 0 -212 -94 -212 -210c0 -113 94 -209 209 -209
c119 0 212 94 212 211c0 115 -94 208 -209 208zM460 645l-25 -50l-247 134l28 58z" />
    <glyph glyph-name="aring" unicode="&#xe5;" horiz-adv-x="680" 
d="M497 0v109c-46 -79 -123 -123 -214 -123c-96 0 -184 47 -230 123c-26 43 -44 93 -42 151c0 76 22 111 44 150c43 76 132 124 227 124s167 -44 215 -124v115h153v-62h-87v-401h87v-62h-153zM289 469c-116 0 -212 -94 -212 -210c0 -113 94 -209 209 -209
c119 0 212 94 212 211c0 115 -94 208 -209 208zM326 581c-60 0 -107 47 -107 107c0 59 49 105 107 105s105 -49 105 -106c0 -58 -47 -106 -105 -106zM326 625c35 0 61 29 61 63c0 35 -29 61 -62 61c-36 0 -62 -29 -62 -63c0 -35 29 -61 63 -61z" />
    <glyph glyph-name="atilde" unicode="&#xe3;" horiz-adv-x="680" 
d="M497 0v109c-46 -79 -123 -123 -214 -123c-96 0 -184 47 -230 123c-26 43 -44 93 -42 151c0 76 22 111 44 150c43 76 132 124 227 124s167 -44 215 -124v115h153v-62h-87v-401h87v-62h-153zM289 469c-116 0 -212 -94 -212 -210c0 -113 94 -209 209 -209
c119 0 212 94 212 211c0 115 -94 208 -209 208zM451 736l37 -45c-26 -28 -60 -46 -99 -46c-52 0 -83 35 -121 35c-24 0 -44 -13 -60 -30l-39 49c20 22 56 39 86 39c24 0 43 -9 62 -17c20 -9 39 -18 63 -18c29 0 53 10 71 33z" />
    <glyph glyph-name="ccedilla" unicode="&#xe7;" horiz-adv-x="587" 
d="M525 525v-158h-62c-38 62 -107 101 -180 101c-116 0 -207 -94 -207 -210c0 -117 94 -206 212 -206c75 0 149 42 180 112h74c-39 -108 -144 -177 -258 -178l-24 -75c10 5 15 6 26 6c45 0 76 -37 76 -81c0 -47 -36 -88 -84 -88c-46 0 -80 29 -87 75h46c6 -17 20 -29 39 -29
c24 0 40 18 40 42s-18 41 -42 41c-15 0 -28 -6 -36 -18l-38 14l39 118c-130 20 -229 134 -229 266c0 75 29 144 77 193c50 51 116 84 192 84c74 0 136 -30 184 -84v75h62z" />
    <glyph glyph-name="eacute" unicode="&#xe9;" horiz-adv-x="566" 
d="M464 147h70c-44 -98 -142 -161 -250 -161c-151 0 -274 121 -274 271c0 149 118 277 270 277c156 0 276 -121 276 -276v-20h-480c6 -108 98 -193 206 -193c76 0 144 36 182 102zM76 292h418c-15 107 -108 182 -215 182c-101 0 -191 -83 -203 -182zM172 597l-24 49l246 139
l30 -57z" />
    <glyph glyph-name="ecircumflex" unicode="&#xea;" horiz-adv-x="566" 
d="M464 147h70c-44 -98 -142 -161 -250 -161c-151 0 -274 121 -274 271c0 149 118 277 270 277c156 0 276 -121 276 -276v-20h-480c6 -108 98 -193 206 -193c76 0 144 36 182 102zM76 292h418c-15 107 -108 182 -215 182c-101 0 -191 -83 -203 -182zM483 617h-86l-109 82
l-107 -82h-83l172 138h39z" />
    <glyph glyph-name="edieresis" unicode="&#xeb;" horiz-adv-x="566" 
d="M464 147h70c-44 -98 -142 -161 -250 -161c-151 0 -274 121 -274 271c0 149 118 277 270 277c156 0 276 -121 276 -276v-20h-480c6 -108 98 -193 206 -193c76 0 144 36 182 102zM76 292h418c-15 107 -108 182 -215 182c-101 0 -191 -83 -203 -182zM385 752v-125h-69v125
h69zM258 752v-125h-69v125h69z" />
    <glyph glyph-name="egrave" unicode="&#xe8;" horiz-adv-x="566" 
d="M464 147h70c-44 -98 -142 -161 -250 -161c-151 0 -274 121 -274 271c0 149 118 277 270 277c156 0 276 -121 276 -276v-20h-480c6 -108 98 -193 206 -193c76 0 144 36 182 102zM76 292h418c-15 107 -108 182 -215 182c-101 0 -191 -83 -203 -182zM420 645l-25 -50
l-247 134l28 58z" />
    <glyph glyph-name="iacute" unicode="&#xed;" horiz-adv-x="317" 
d="M206 525v-463h88v-62h-244v62h90v401h-88v62h154zM50 597l-24 49l246 139l30 -57z" />
    <glyph glyph-name="icircumflex" unicode="&#xee;" horiz-adv-x="295" 
d="M180 525v-463h88v-62h-244v62h90v401h-88v62h154zM335 617h-86l-109 82l-107 -82h-83l172 138h39z" />
    <glyph glyph-name="idieresis" unicode="&#xef;" horiz-adv-x="294" 
d="M191 525v-463h88v-62h-244v62h90v401h-88v62h154zM248 752v-125h-69v125h69zM121 752v-125h-69v125h69z" />
    <glyph glyph-name="igrave" unicode="&#xec;" horiz-adv-x="288" 
d="M181 525v-463h88v-62h-244v62h90v401h-88v62h154zM273 645l-25 -50l-247 134l28 58z" />
    <glyph glyph-name="ntilde" unicode="&#xf1;" horiz-adv-x="673" 
d="M189 525v-92c33 65 104 101 176 101c59 0 147 -32 181 -101c13 -26 29 -73 29 -137v-234h88v-62h-242v62h88v210c0 47 -1 92 -25 133c-28 49 -87 64 -137 64c-46 0 -93 -20 -123 -55c-34 -40 -35 -85 -35 -134v-218h88v-62h-242v62h88v401h-88v62h154zM474 736l37 -45
c-26 -28 -60 -46 -99 -46c-52 0 -83 35 -121 35c-24 0 -44 -13 -60 -30l-39 49c20 22 56 39 86 39c24 0 43 -9 62 -17c20 -9 39 -18 63 -18c29 0 53 10 71 33z" />
    <glyph glyph-name="oacute" unicode="&#xf3;" horiz-adv-x="570" 
d="M285 -14c-152 0 -275 123 -275 273c0 153 124 275 277 275c149 0 273 -122 273 -270c0 -153 -121 -278 -275 -278zM285 51c116 0 209 94 209 209c0 114 -92 209 -208 209s-210 -93 -210 -208c0 -114 92 -210 209 -210zM172 597l-24 49l246 139l30 -57z" />
    <glyph glyph-name="ocircumflex" unicode="&#xf4;" horiz-adv-x="570" 
d="M285 -14c-152 0 -275 123 -275 273c0 153 124 275 277 275c149 0 273 -122 273 -270c0 -153 -121 -278 -275 -278zM285 51c116 0 209 94 209 209c0 114 -92 209 -208 209s-210 -93 -210 -208c0 -114 92 -210 209 -210zM483 617h-86l-109 82l-107 -82h-83l172 138h39z" />
    <glyph glyph-name="odieresis" unicode="&#xf6;" horiz-adv-x="570" 
d="M285 -14c-152 0 -275 123 -275 273c0 153 124 275 277 275c149 0 273 -122 273 -270c0 -153 -121 -278 -275 -278zM285 51c116 0 209 94 209 209c0 114 -92 209 -208 209s-210 -93 -210 -208c0 -114 92 -210 209 -210zM385 752v-125h-69v125h69zM258 752v-125h-69v125h69
z" />
    <glyph glyph-name="ograve" unicode="&#xf2;" horiz-adv-x="570" 
d="M285 -14c-152 0 -275 123 -275 273c0 153 124 275 277 275c149 0 273 -122 273 -270c0 -153 -121 -278 -275 -278zM285 51c116 0 209 94 209 209c0 114 -92 209 -208 209s-210 -93 -210 -208c0 -114 92 -210 209 -210zM420 645l-25 -50l-247 134l28 58z" />
    <glyph glyph-name="otilde" unicode="&#xf5;" horiz-adv-x="570" 
d="M285 -14c-152 0 -275 123 -275 273c0 153 124 275 277 275c149 0 273 -122 273 -270c0 -153 -121 -278 -275 -278zM285 51c116 0 209 94 209 209c0 114 -92 209 -208 209s-210 -93 -210 -208c0 -114 92 -210 209 -210zM411 736l37 -45c-26 -28 -60 -46 -99 -46
c-52 0 -83 35 -121 35c-24 0 -44 -13 -60 -30l-39 49c20 22 56 39 86 39c24 0 43 -9 62 -17c20 -9 39 -18 63 -18c29 0 53 10 71 33z" />
    <glyph glyph-name="scaron" unicode="&#x161;" horiz-adv-x="440" 
d="M392 392h-54c-1 27 -14 49 -34 64s-46 24 -74 24c-53 0 -103 -32 -103 -89c0 -66 63 -82 116 -93c41 -8 83 -17 119 -39c42 -24 65 -67 65 -115c0 -34 -11 -58 -23 -81c-25 -48 -92 -77 -153 -77c-63 0 -114 23 -146 77v-63h-54v150h54c6 -64 63 -111 134 -111
c58 0 114 39 114 100c0 72 -62 85 -120 97c-41 9 -82 17 -118 39c-39 25 -62 65 -62 111c0 36 7 64 27 90c31 40 90 58 139 58s93 -17 119 -58v49h54v-133zM430 755l-175 -138h-39l-171 138h86l109 -82l107 82h83z" />
    <glyph glyph-name="uacute" unicode="&#xfa;" horiz-adv-x="649" 
d="M479 0v88c-34 -64 -100 -102 -175 -102c-77 0 -147 49 -179 102c-17 28 -27 67 -27 129v246h-88v62h154v-283c0 -49 1 -96 33 -138c31 -41 74 -60 126 -56s92 26 118 57c36 43 38 81 38 135v223h-88v62h154v-463h89v-62h-155zM206 597l-24 49l246 139l30 -57z" />
    <glyph glyph-name="ucircumflex" unicode="&#xfb;" horiz-adv-x="649" 
d="M479 0v88c-34 -64 -100 -102 -175 -102c-77 0 -147 49 -179 102c-17 28 -27 67 -27 129v246h-88v62h154v-283c0 -49 1 -96 33 -138c31 -41 74 -60 126 -56s92 26 118 57c36 43 38 81 38 135v223h-88v62h154v-463h89v-62h-155zM517 617h-86l-109 82l-107 -82h-83l172 138
h39z" />
    <glyph glyph-name="udieresis" unicode="&#xfc;" horiz-adv-x="649" 
d="M479 0v88c-34 -64 -100 -102 -175 -102c-77 0 -147 49 -179 102c-17 28 -27 67 -27 129v246h-88v62h154v-283c0 -49 1 -96 33 -138c31 -41 74 -60 126 -56s92 26 118 57c36 43 38 81 38 135v223h-88v62h154v-463h89v-62h-155zM419 752v-125h-69v125h69zM292 752v-125h-69
v125h69z" />
    <glyph glyph-name="ugrave" unicode="&#xf9;" horiz-adv-x="649" 
d="M479 0v88c-34 -64 -100 -102 -175 -102c-77 0 -147 49 -179 102c-17 28 -27 67 -27 129v246h-88v62h154v-283c0 -49 1 -96 33 -138c31 -41 74 -60 126 -56s92 26 118 57c36 43 38 81 38 135v223h-88v62h154v-463h89v-62h-155zM454 645l-25 -50l-247 134l28 58z" />
    <glyph glyph-name="yacute" unicode="&#xfd;" horiz-adv-x="628" 
d="M539 463l-250 -596h86v-62h-243v62h88l54 129l-185 467h-84v62h240v-62h-83l148 -384l157 384h-82v62h238v-62h-84zM203 597l-24 49l246 139l30 -57z" />
    <glyph glyph-name="ydieresis" unicode="&#xff;" horiz-adv-x="628" 
d="M539 463l-250 -596h86v-62h-243v62h88l54 129l-185 467h-84v62h240v-62h-83l148 -384l157 384h-82v62h238v-62h-84zM416 752v-125h-69v125h69zM289 752v-125h-69v125h69z" />
    <glyph glyph-name="zcaron" unicode="&#x17e;" horiz-adv-x="499" 
d="M395 159h59v-159h-399v56l301 407h-226v-101h-59v163h368v-61l-295 -402h251v97zM448 755l-175 -138h-39l-171 138h86l109 -82l107 82h83z" />
    <glyph glyph-name="Delta" unicode="&#x2206;" horiz-adv-x="700" 
d="M44 0v48l268 692h75l264 -692v-48h-607zM111 54h469l-160 415c-19 55 -58 146 -72 194h-4c-10 -39 -45 -122 -64 -177z" />
    <glyph glyph-name="Omega" unicode="&#x2126;" horiz-adv-x="770" 
d="M221 54v3c-76 66 -145 179 -145 327c0 207 138 347 313 347c184 0 305 -159 305 -343c0 -154 -74 -272 -147 -331v-3h161v-54h-245v40c83 54 164 171 164 337c0 137 -81 299 -239 299c-150 0 -245 -135 -245 -301c0 -156 82 -283 164 -335v-40h-245v54h159z" />
    <glyph glyph-name="pi" unicode="&#x3c0;" horiz-adv-x="690" 
d="M609 478h-86v-326c0 -88 7 -125 15 -152h-64c-9 16 -17 57 -17 145v333h-200c-6 -138 -39 -383 -78 -478h-65c40 109 72 334 78 478c-69 0 -98 -6 -120 -14l-11 44c26 15 67 26 144 26h411z" />
    <glyph glyph-name="Euro" unicode="&#x20ac;" horiz-adv-x="625" 
d="M447 290h-264c6 -56 20 -110 43 -152c31 -55 80 -92 149 -92c75 0 141 43 158 141h64c-19 -131 -99 -201 -224 -201c-93 0 -159 47 -200 114c-34 56 -53 124 -60 190h-77v45h74c-1 10 -1 19 -1 28c0 11 0 22 1 33h-74v44h78c8 63 27 128 61 181c42 66 108 112 197 112
c74 0 128 -31 166 -103v84h51v-174h-67c-24 71 -70 133 -150 133c-63 0 -112 -34 -145 -92c-22 -38 -36 -87 -43 -141h263v-44h-267c-1 -11 -1 -22 -1 -33c0 -9 0 -19 1 -28h267v-45z" />
    <glyph glyph-name="estimated" unicode="&#x212e;" horiz-adv-x="901" 
d="M865 349h-672c-3 0 -6 -1 -6 -4v-204c0 -9 4 -16 9 -23c65 -67 155 -110 254 -110c108 0 203 48 268 123h59c-74 -87 -194 -144 -328 -144c-228 0 -414 166 -414 372c0 207 186 374 414 374c230 0 416 -167 416 -374v-10zM712 376v204c0 9 -3 18 -10 24
c-65 64 -153 106 -252 106c-98 0 -188 -43 -253 -109c-6 -7 -10 -15 -10 -25v-200c0 -3 3 -7 6 -7h515c3 0 4 4 4 7z" />
    <glyph glyph-name="partialdiff" unicode="&#x2202;" horiz-adv-x="610" 
d="M131 700l-25 47c34 28 88 58 170 58c132 0 258 -125 258 -390c0 -236 -89 -425 -267 -425c-134 0 -197 120 -197 237c0 160 105 261 221 261c99 0 160 -72 177 -104h1c1 13 1 35 1 48c0 194 -93 318 -200 318c-65 0 -110 -26 -139 -50zM272 45h1c105 0 172 127 187 270
c-16 48 -75 120 -160 120c-89 0 -164 -92 -164 -206c0 -106 53 -184 136 -184z" />
    <glyph glyph-name="product" unicode="&#x220f;" horiz-adv-x="887" 
d="M778 660h-117v-759h-64v759h-307v-759h-65v759h-116v59h669v-59z" />
    <glyph glyph-name="summation" unicode="&#x2211;" horiz-adv-x="592" 
d="M560 -99h-529v44l287 363l-273 366v45h499v-57h-407v-3l257 -342l-276 -351v-3h442v-62z" />
    <glyph glyph-name="uni2219" unicode="&#x2219;" horiz-adv-x="300" 
d="M185 413v-109h-69v109h69z" />
    <glyph glyph-name="radical" unicode="&#x221a;" horiz-adv-x="638" 
d="M625 853l-231 -1009h-61l-169 484l-78 -29l-14 41l134 52l139 -397c6 -24 13 -52 17 -72h1c3 19 9 47 14 70l197 860h51z" />
    <glyph glyph-name="infinity" unicode="&#x221e;" horiz-adv-x="836" 
d="M768 300v-1c0 -99 -76 -162 -157 -162c-67 0 -118 44 -192 125c-55 -62 -112 -125 -197 -125c-84 0 -154 69 -154 158c0 93 69 161 161 161c78 0 139 -61 194 -126c56 62 109 126 196 126c90 0 149 -64 149 -156zM228 180h1c69 0 122 68 166 114c-48 56 -97 121 -174 121
c-67 0 -106 -58 -105 -121c0 -63 44 -114 112 -114zM614 415h-1c-72 0 -129 -80 -167 -117c71 -76 112 -118 169 -118c68 0 106 59 106 116c0 75 -46 119 -107 119z" />
    <glyph glyph-name="integral" unicode="&#x222b;" horiz-adv-x="506" 
d="M421 862l-12 -46c-9 6 -25 11 -39 11c-17 0 -39 -6 -53 -24c-27 -31 -37 -86 -37 -186c0 -160 14 -359 14 -523c0 -114 -22 -174 -46 -209c-21 -32 -58 -48 -96 -48c-25 0 -53 10 -65 17l13 48c9 -4 27 -13 48 -13c17 0 36 9 48 24c22 27 38 73 38 182
c0 165 -14 368 -14 528c0 111 14 175 54 215c25 27 59 39 92 39c21 0 45 -8 55 -15z" />
    <glyph glyph-name="approxequal" unicode="&#x2248;" horiz-adv-x="594" 
d="M514 440l28 -25c-27 -52 -68 -96 -132 -96c-43 0 -73 17 -124 44c-32 19 -64 36 -99 36c-49 0 -78 -37 -105 -78l-30 24c32 60 83 97 142 97c51 0 89 -29 118 -44c37 -19 62 -36 101 -36c43 0 71 26 101 78zM514 267l28 -25c-27 -52 -67 -96 -132 -96
c-43 0 -73 17 -124 44c-32 19 -63 36 -99 36c-50 0 -79 -38 -105 -79l-30 24c32 61 83 98 142 98c52 0 89 -28 118 -43c35 -19 61 -37 101 -37c44 0 71 26 101 78z" />
    <glyph glyph-name="notequal" unicode="&#x2260;" horiz-adv-x="596" 
d="M418 519l-48 -105h168v-44h-187l-72 -155h259v-44h-278l-57 -124l-36 17l50 107h-160v44h179l72 155h-251v44h269l57 122z" />
    <glyph glyph-name="lessequal" unicode="&#x2264;" horiz-adv-x="596" 
d="M536 97l-473 235v46l473 234v-54l-424 -201v-2l424 -204v-54zM538 8h-481v46h481v-46z" />
    <glyph glyph-name="greaterequal" unicode="&#x2265;" horiz-adv-x="595" 
d="M63 612l472 -234v-46l-472 -235v54l422 203v2l-422 202v54zM537 8h-480v46h480v-46z" />
    <glyph glyph-name="lozenge" unicode="&#x25ca;" horiz-adv-x="611" 
d="M544 359l-211 -406h-54l-209 406l211 407h54zM483 358l-156 300c-7 16 -15 38 -20 51h-2c-5 -15 -11 -33 -20 -51l-155 -297l157 -302c10 -20 16 -38 19 -51h3c4 13 12 37 19 51z" />
    <glyph glyph-name="uni02C9" unicode="&#x2c9;" horiz-adv-x="460" 
d="M391 718v-55h-320v55h320z" />
    <glyph glyph-name="uni00AD" unicode="&#xad;" horiz-adv-x="300" 
d="M274 228h-248v66h248v-66z" />
    <glyph glyph-name="uni03A9" unicode="&#x3a9;" horiz-adv-x="755" 
d="M213 54v3c-76 66 -145 179 -145 327c0 207 138 347 313 347c184 0 305 -159 305 -343c0 -154 -74 -272 -147 -331v-3h161v-54h-245v40c83 54 164 171 164 337c0 137 -81 299 -239 299c-150 0 -245 -135 -245 -301c0 -156 82 -283 164 -335v-40h-245v54h159z" />
    <glyph glyph-name="uni00A0" unicode="&#xa0;" horiz-adv-x="536" 
 />
    <glyph glyph-name="afii61289" unicode="&#x2113;" horiz-adv-x="498" 
d="M440 146l33 -28c-44 -83 -109 -127 -190 -127c-117 0 -165 92 -168 195v14c-19 -15 -41 -34 -61 -50l-22 39c29 25 57 47 82 72v287c0 189 81 244 154 244c86 0 126 -73 126 -164c0 -132 -87 -257 -218 -383v-32c1 -122 58 -169 120 -169c67 0 118 55 144 102zM176 555
v-244c95 102 170 207 170 315c0 68 -21 116 -79 116c-40 0 -91 -47 -91 -187z" />
    <glyph glyph-name="uni03BC" unicode="&#x3bc;" horiz-adv-x="640" 
d="M478 0v88h-2c-32 -64 -98 -102 -173 -102c-50 0 -103 22 -140 55v-236h-66v658h-88v62h154v-295c0 -91 38 -182 159 -182c14 0 156 8 156 182v233h-88v62h154v-463h89v-62h-155z" />
    <glyph glyph-name="uni2215" unicode="&#x2215;" horiz-adv-x="60" 
d="M-96 0h-58l317 714h57z" />
    </font>
</defs>
</svg>
